<?xml version="1.0" encoding="UTF-8" standalone="no"?>
<svg
   viewBox="0 0 21 21"
   height="21"
   width="21"
   version="1.1"
   id="svg10"
   sodipodi:docname="star-blue.svg"
   inkscape:version="1.1 (c68e22c387, 2021-05-23)"
   xmlns:inkscape="http://www.inkscape.org/namespaces/inkscape"
   xmlns:sodipodi="http://sodipodi.sourceforge.net/DTD/sodipodi-0.dtd"
   xmlns="http://www.w3.org/2000/svg"
   xmlns:svg="http://www.w3.org/2000/svg"
   xmlns:rdf="http://www.w3.org/1999/02/22-rdf-syntax-ns#"
   xmlns:cc="http://creativecommons.org/ns#"
   xmlns:dc="http://purl.org/dc/elements/1.1/">
  <defs
     id="defs14" />
  <sodipodi:namedview
     id="namedview12"
     pagecolor="#ffffff"
     bordercolor="#666666"
     borderopacity="1.0"
     inkscape:pageshadow="2"
     inkscape:pageopacity="0.0"
     inkscape:pagecheckerboard="0"
     showgrid="false"
     inkscape:zoom="29.619048"
     inkscape:cx="3.8319936"
     inkscape:cy="10.5"
     inkscape:window-width="1368"
     inkscape:window-height="850"
     inkscape:window-x="-6"
     inkscape:window-y="-6"
     inkscape:window-maximized="1"
     inkscape:current-layer="svg10" />
  <title
     id="title2">star.svg</title>
  <rect
     fill="none"
     x="0"
     y="0"
     width="21"
     height="21"
     id="rect4" />
  <path
     fill="#fff"
     transform="translate(3 3)"
     d="M7.5,0l-2,5h-5l4,3.5l-2,6l5-3.5  l5,3.5l-2-6l4-3.5h-5L7.5,0z"
     style="stroke-linejoin:round;stroke-miterlimit:4;"
     stroke="#fff"
     stroke-width="2"
     id="path6" />
  <path
     fill="#4264fb"
     transform="translate(3 3)"
     d="M7.5,0l-2,5h-5l4,3.5l-2,6l5-3.5  l5,3.5l-2-6l4-3.5h-5L7.5,0z"
     id="path8" />
  <path
     style="fill:#358acc;fill-opacity:1;stroke-width:0.0337621"
     d="M 5.542564,17.421222 C 5.7958623,16.717523 7.4964466,11.531107 7.4842812,11.499404 7.4747852,11.474658 6.5833847,10.681329 5.5033908,9.7364501 L 3.5397656,8.0184887 6.0307,8.0016077 8.5216342,7.9847267 9.5023768,5.5290059 C 10.041785,4.1783595 10.490715,3.0732851 10.5,3.0732851 c 0.0093,0 0.458215,1.1050744 0.997623,2.4557208 l 0.980743,2.4557208 2.490783,0.016881 2.490783,0.016881 -1.977554,1.7305462 c -1.087655,0.9518001 -1.977555,1.7495271 -1.977555,1.7727261 0,0.0232 0.440303,1.362893 0.978451,2.977096 0.538148,1.614204 0.974945,2.937885 0.970659,2.941513 -0.0043,0.0036 -1.109279,-0.765638 -2.455541,-1.709479 -1.346262,-0.943841 -2.467917,-1.716876 -2.492567,-1.717855 -0.03317,-0.0013 -4.6354258,3.190534 -4.9329662,3.42121 -0.037993,0.02945 -0.044568,0.02663 -0.030295,-0.01302 z"
     id="path90" />
  <metadata
     id="metadata981">
    <rdf:RDF>
      <cc:Work
         rdf:about="">
        <dc:title>star.svg</dc:title>
      </cc:Work>
    </rdf:RDF>
  </metadata>
</svg>
