<?xml version="1.0" encoding="utf-8"?>
<!-- Generator: Adobe Illustrator 24.2.1, SVG Export Plug-In . SVG Version: 6.00 Build 0)  -->
<svg version="1.1" id="Layer_1" xmlns="http://www.w3.org/2000/svg" xmlns:xlink="http://www.w3.org/1999/xlink" x="0px" y="0px"
	 viewBox="0 0 180 17.4" style="enable-background:new 0 0 180 17.4;" xml:space="preserve">
<style type="text/css">
	.st0{fill:#827369;}
</style>
<g>
	<rect x="118.5" class="st0" width="1.8" height="17.3"/>
	<path class="st0" d="M155.2,12.4c-0.7,1.7-1.2,1.4-1.6,0.4c-0.1-0.1-0.1-0.3-0.2-0.5c-0.2-0.4-0.4-0.8-0.6-1.2
		c-0.9-1.8-2-4.2-3.2-6.8l-1.3-2.9c0,0,0,0,0,0v0L147.7,0h-2.2v0.2c0,4.9-0.2,17-0.2,17h0.2h0.8h0.2h0.4c0,0-0.6-10.6-0.6-15.3V1.6
		l6.6,15.1l0.2,0.5h0.8l0.7-1.5l6.1-13.9v15.3h1.8V0h-1.8L155.2,12.4z"/>
	<path class="st0" d="M132.8,9.1h1.1c2.9,0,4.7-1.9,4.7-4.5c0-2.6-1.9-4.5-4.7-4.5h-5v0h-1.8v0l-0.2,0c0,0,0.2,7.4,0.2,10.4v6.9h1.8
		V9.1c1.9,0,2.9,0.6,4.1,2.1l0.6,0.8c0,0,0,0,0,0l3.8,5.2h2h0.6c0,0-3.5-4.3-5.1-6.4C134.1,9.9,133.4,9.4,132.8,9.1z M128.9,8.3V0.8
		h4.1c2.3,0,3.7,1.7,3.7,3.8c0,2.1-1.3,3.8-3.7,3.8H128.9z"/>
	<path class="st0" d="M113.6,0h-8.8l0,0l-0.3,0v0H103v0l-0.3,0c0,0,0.3,7.4,0.3,10.4v6.9h1.5v0h0.3V8.4h1.2c3.7,0,6.5,0.2,6.5,0.2
		V8.4V7.6V7.4c0,0-3.6,0.2-7.7,0.2V0.8c4.6,0,8.8,0.4,8.8,0.4V1.1L113.6,0L113.6,0L113.6,0z"/>
	<path class="st0" d="M0,0L0,0L0,0l0,0.8v0.3c0,0,3.2-0.2,7-0.3v16.5h0.3h0.3h0.6h0.3h0.3V0.8c3.8,0.1,7,0.3,7,0.3V0.8V0v0l0,0H0z"
		/>
	<path class="st0" d="M23,8.4c4.2,0,7.4,0.2,7.4,0.2V8.4V7.6V7.4c0,0-2.9,0.2-6.6,0.2H23V0.8c4.5,0,8.8,0.4,8.8,0.4V0l0,0H23l0,0
		l-0.3,0v0h-1.5v0L21,0c0,0,0.2,6.8,0.2,10v7.3h1.5v0h9.4v-0.8V16c0,0-4.4,0.5-9.1,0.5V8.4z"/>
	<path class="st0" d="M43.8,9.1h1.1c2.9,0,4.7-1.9,4.7-4.5C49.7,2,47.8,0,44.9,0h-5v0h-1.8v0l-0.2,0c0,0,0.2,7.4,0.2,10.4v6.9h1.8
		V9.1c1.9,0,2.9,0.6,4.1,2.1l0.6,0.8c0,0,0,0,0,0l3.8,5.2h2h0.6c0,0-3.5-4.3-5.1-6.4C45.1,9.9,44.5,9.4,43.8,9.1z M39.9,8.3V0.8H44
		c2.3,0,3.7,1.7,3.7,3.8c0,2.1-1.3,3.8-3.7,3.8H39.9z"/>
	<path class="st0" d="M61.7,9.1h1.1c2.9,0,4.7-1.9,4.7-4.5C67.6,2,65.7,0,62.9,0h-5v0h-1.8v0l-0.2,0c0,0,0.2,7.4,0.2,10.4v6.9h1.8
		V9.1c1.9,0,2.9,0.6,4.1,2.1l0.6,0.8c0,0,0,0,0,0l3.8,5.2h2h0.6c0,0-3.5-4.3-5.1-6.4C63.1,9.9,62.4,9.4,61.7,9.1z M57.9,8.3V0.8h4.1
		c2.3,0,3.7,1.7,3.7,3.8c0,2.1-1.3,3.8-3.7,3.8H57.9z"/>
	<path class="st0" d="M81.5,0h-1l-0.3,0l0,0h-0.4c0,0,0.3,0.5,0.7,1.4l-0.4,0.9c-1.7,4.1-6.8,14.9-6.8,14.9h0.4h0.8H75
		c0,0,1-2.5,2.4-6h7.3l2.4,6h1.9L82.1,0H81.5z M84.4,10.5h-6.7c1-2.4,2.1-5.3,3.2-8.1l0,0c0.9,1.9,2.1,4.7,3.3,7.6L84.4,10.5z"/>
	<path class="st0" d="M170.9,16.5V8.4c4.2,0,7.4,0.2,7.4,0.2V8.4V7.6V7.4c0,0-2.9,0.2-6.6,0.2h-0.8V0.8c4.5,0,8.8,0.4,8.8,0.4V0l0,0
		h-8.8v0l-0.3,0v0h-1.5v0l-0.2,0c0,0,0.2,6.8,0.2,10v7.3h1.5v0h9.4v-0.8V16C180,16,175.6,16.5,170.9,16.5z"/>
</g>
</svg>
