<?xml version="1.0" encoding="UTF-8" standalone="no"?>
<svg
   viewBox="0 0 692.06775 577.08471"
   version="1.1"
   id="svg4"
   sodipodi:docname="graduation-cap-solid.svg"
   width="692.06775"
   height="577.08472"
   inkscape:version="1.2 (dc2aedaf03, 2022-05-15)"
   xmlns:inkscape="http://www.inkscape.org/namespaces/inkscape"
   xmlns:sodipodi="http://sodipodi.sourceforge.net/DTD/sodipodi-0.dtd"
   xmlns="http://www.w3.org/2000/svg"
   xmlns:svg="http://www.w3.org/2000/svg">
  <defs
     id="defs8" />
  <sodipodi:namedview
     id="namedview6"
     pagecolor="#ffffff"
     bordercolor="#666666"
     borderopacity="1.0"
     inkscape:showpageshadow="2"
     inkscape:pageopacity="0.0"
     inkscape:pagecheckerboard="0"
     inkscape:deskcolor="#d1d1d1"
     showgrid="false"
     inkscape:zoom="0.4609375"
     inkscape:cx="347.11864"
     inkscape:cy="296.13559"
     inkscape:window-width="1368"
     inkscape:window-height="850"
     inkscape:window-x="-6"
     inkscape:window-y="-6"
     inkscape:window-maximized="1"
     inkscape:current-layer="svg4" />
  <rect
     style="fill:#000080;fill-opacity:1;stroke:none;stroke-width:27.4838;paint-order:fill markers stroke"
     id="rect2296"
     width="692.06775"
     height="577.08472"
     x="0"
     y="0" />
  <!--! Font Awesome Pro 6.1.1 by @fontawesome - https://fontawesome.com License - https://fontawesome.com/license (Commercial License) Copyright 2022 Fonticons, Inc. -->
  <path
     d="M 622.53455,178.02578 366.66712,83.196972 c -12.42682,-4.600884 -25.97593,-4.600884 -38.40275,0 L 73.102879,178.02578 c -8.699676,3.27965 -14.526611,11.90045 -14.526611,21.64571 0,9.74525 5.826935,18.4129 14.526611,21.63633 l 54.323191,20.15581 c -10.76146,14.80529 -18.33702,32.0094 -22.21984,50.5535 -10.381321,4.54466 -17.667251,15.22695 -17.667251,27.59593 0,9.32639 4.35708,17.32593 10.80671,22.82638 l -22.47325,139.61949 c -1.47529,9.1268 5.33095,17.46649 14.28224,17.46649 h 52.694031 c 8.94858,0 15.75753,-8.32001 14.28224,-17.45712 L 134.6577,342.44881 c 6.45325,-5.50045 10.80671,-14.30865 10.80671,-22.83575 0,-9.64218 -4.68291,-17.83194 -11.51268,-23.32301 3.84842,-16.6419 11.65749,-31.69082 22.57281,-44.06916 l 172.50915,63.93448 c 12.42682,4.60088 25.97594,4.60088 38.40275,0 l 255.86743,-94.82881 c 8.73407,-3.28902 14.52661,-11.90982 14.52661,-21.65507 0,-9.74526 -5.79254,-18.36606 -15.29593,-21.64571 z M 376.35153,344.35101 c -8.5078,3.46706 -18.28272,5.24744 -28.14814,5.24744 -9.88353,0 -19.63129,-1.74946 -28.96271,-5.20527 L 187.82237,295.71845 174.42712,429.52827 c 0,38.6999 77.02271,69.99715 173.77627,69.99715 95.12441,0 173.77624,-31.29725 173.77624,-69.96904 L 508.60248,295.65286 Z"
     id="path2"
     style="fill:#ffc200;fill-opacity:1;stroke-width:0.920925" />
</svg>
